<svg width="835" height="221" viewBox="0 0 835 221" fill="none" xmlns="http://www.w3.org/2000/svg">
<path d="M113.536 220.744C81.28 220.744 54.304 210.088 32.608 188.776C10.912 167.464 0.0640002 141.448 0.0640002 110.728C0.0640002 80.008 10.912 53.896 32.608 32.392C54.304 10.888 81.28 0.135994 113.536 0.135994C145.408 0.135994 172.192 10.696 193.888 31.816L160.48 69.544C155.296 63.784 148.672 59.272 140.608 56.008C132.544 52.552 124.48 50.824 116.416 50.824C98.176 50.824 83.488 56.392 72.352 67.528C61.408 78.664 55.936 93.064 55.936 110.728C55.936 128.392 61.408 142.792 72.352 153.928C83.488 165.064 98.176 170.632 116.416 170.632C132.544 170.632 146.848 164.872 159.328 153.352L191.584 191.368C170.08 210.952 144.064 220.744 113.536 220.744ZM387.964 188.776C366.268 210.088 339.292 220.744 307.036 220.744C274.78 220.744 247.804 210.088 226.108 188.776C204.412 167.464 193.564 141.448 193.564 110.728C193.564 80.008 204.412 53.896 226.108 32.392C247.804 10.888 274.78 0.135994 307.036 0.135994C339.292 0.135994 366.268 10.888 387.964 32.392C409.66 53.896 420.508 80.008 420.508 110.728C420.508 141.448 409.66 167.464 387.964 188.776ZM265.564 153.64C276.316 164.584 290.14 170.056 307.036 170.056C323.932 170.056 337.756 164.584 348.508 153.64C359.26 142.504 364.636 128.2 364.636 110.728C364.636 93.256 359.26 78.952 348.508 67.816C337.756 56.488 323.932 50.824 307.036 50.824C290.14 50.824 276.316 56.488 265.564 67.816C254.812 78.952 249.436 93.256 249.436 110.728C249.436 128.2 254.812 142.504 265.564 153.64ZM630.964 188.776C609.268 210.088 582.292 220.744 550.036 220.744C517.78 220.744 490.804 210.088 469.108 188.776C447.412 167.464 436.564 141.448 436.564 110.728C436.564 80.008 447.412 53.896 469.108 32.392C490.804 10.888 517.78 0.135994 550.036 0.135994C582.292 0.135994 609.268 10.888 630.964 32.392C652.66 53.896 663.508 80.008 663.508 110.728C663.508 141.448 652.66 167.464 630.964 188.776ZM508.564 153.64C519.316 164.584 533.14 170.056 550.036 170.056C566.932 170.056 580.756 164.584 591.508 153.64C602.26 142.504 607.636 128.2 607.636 110.728C607.636 93.256 602.26 78.952 591.508 67.816C580.756 56.488 566.932 50.824 550.036 50.824C533.14 50.824 519.316 56.488 508.564 67.816C497.812 78.952 492.436 93.256 492.436 110.728C492.436 128.2 497.812 142.504 508.564 153.64ZM689.356 217V3.88H744.652V166.888H834.508V217H689.356Z" fill="black"/>
</svg>
