<svg width="160" height="215" viewBox="0 0 160 215" fill="none" xmlns="http://www.w3.org/2000/svg">
<path d="M82.1609 214.896C131.121 214.896 159.921 184.944 159.921 149.808C159.921 113.52 136.881 98.832 106.929 90.48L78.9929 82.416C62.8649 77.808 54.2249 70.032 54.2249 57.648C54.2249 47.28 61.1369 36.912 81.2969 36.912C97.1369 36.912 113.553 44.688 123.921 68.304L158.481 43.536C146.385 15.888 119.313 0.623983 82.7369 0.623983C39.5369 0.623983 9.00886 25.68 9.00886 63.696C9.00886 94.224 29.4569 112.656 61.1369 121.584L88.4969 129.072C104.337 133.392 113.841 138.576 113.841 155.568C113.841 171.984 98.0009 177.744 84.7529 177.744C60.5609 177.744 46.7369 164.496 38.9609 142.896L0.65686 160.464C14.4809 197.328 44.7209 214.896 82.1609 214.896Z" fill="black"/>
</svg>
